<?xml version="1.0" encoding="UTF-8"?>
<svg id="Layer_1" data-name="Layer 1" xmlns="http://www.w3.org/2000/svg" viewBox="0 0 72 72">
  <defs>
    <style>
      .cls-1 {
        fill: #f47e42;
      }

      .cls-2 {
        fill: #fff;
      }
    </style>
  </defs>
  <path class="cls-1" d="M46.46,61.53h-21.25l-15.03-15.03v-21.25l15.03-15.03h21.25l15.03,15.03v21.25l-15.03,15.03ZM26.29,58.92h19.09l13.5-13.5v-19.09l-13.5-13.5h-19.09l-13.5,13.5v19.09l13.5,13.5Z"/>
  <path class="cls-2" d="M59.6,40.84c-.62-1.98-1.86-4.82-1.86-4.82,0,0,1.7-3.4,2.85-6.6,1.15-3.2,4.56-5.45,4.56-5.45,0,0-4.93,1.57-7.84-.36-2.91-1.93-5.87-3.01-5.87-3.01-.24-1.2-1-2.57-2.63-6.24-1.28-4.69-.64-7.52-.64-7.52-1.83,2.48-4.53,4.91-7.34,5.62-2.8.7-4.71,1.7-4.71,1.7,0,0-2.42-1.34-5.67-2.35-3.25-1.01-6.43-4.99-6.43-4.99.48,2-.13,5.41-.65,7.34-.52,1.93-2.8,6.38-2.8,6.38,0,0-2.15,1.13-5.66,2.62s-7.73.77-7.73.77c2.17,1.61,3.88,3.84,4.75,5.91.86,2.07,2.21,6.07,2.21,6.07,0,0-.7,2.23-2.04,5.4s-5.28,6.63-5.28,6.63c3.01-.73,7.44.42,8.78,1.22,1.34.8,4.93,2.1,4.93,2.1.33,1.08,1.47,3.23,2.73,6.32,1.26,3.09.48,7.61.48,7.61,0,0,1.2-2.64,5.09-4.56,3.89-1.92,6.94-2.93,6.94-2.93,0,0,1.97.91,5.52,2.17,3.56,1.26,6.54,5.23,6.54,5.23,0,0-.52-4.26.67-7.28s2.72-6.38,2.72-6.38c1.32-.15,4.54-1.66,6.53-2.86,1.99-1.2,7.27-.32,7.27-.32-2.63-1.58-4.81-5.43-5.43-7.41ZM59.55,26.17s-2.87,4.84-3.14,7.22c0,0-3.86-3.85-4.88-3.99,0,0,1.22-4.29.62-6.3,0,0,4.87,3.09,7.4,3.07ZM42.75,31.02s3.03-1.14,5.7-.19c0,0-2.47,3.49-4.19,3.88,0,0-1.69-.53-3.33-.61,0,0,1.75-2.41,1.82-3.08ZM44.32,37.21s2.76,1.54,4.1,4.1c0,0-3.84.39-5.86-.4,0,0-.75-2.05-1.63-2.98,0,0,1.84.04,3.39-.72ZM49.21,43.29s1.27,3.59.26,6.38c0,0-4.04.59-6.11-.22,0,0,.78-3.97.38-5.91,0,0,3.04.61,5.47-.25ZM46.84,36.14s3.07-2.73,3.87-4.36c0,0,3.17,2.07,4.49,4.23,0,0-2.53,3.25-4.66,4.27,0,0-1.72-3-3.71-4.14ZM49.63,22.57c.6,2.63-.27,6.09-.27,6.09-1.95-.96-5.78-.23-5.78-.23.79-1.67-.18-5.72-.18-5.72,1.13-1.08,6.23-.14,6.23-.14ZM34.03,40.25s.2,2.59.75,3.61c0,0-1.5,3.46-3.93,3.95,0,0-1.06-1.78.22-5.59,0,0,2.09-.92,2.95-1.97ZM34.87,35.38c.27-.63,1-.93,1.63-.67s.93,1,.67,1.63-1,.93-1.63.67-.93-1-.67-1.63ZM37.92,31.33s-.2-2.59-.75-3.61c0,0,1.5-3.46,3.93-3.95,0,0,1.06,1.78-.22,5.59,0,0-2.09.92-2.95,1.97ZM45.89,12.5c-.06,2.53,2.96,7.44,2.96,7.44-2-.63-6.3.52-6.3.52-.13-1.02-3.92-4.94-3.92-4.94,2.39-.23,7.27-3.03,7.27-3.03ZM35.73,16.73s4.24,2.99,4.26,4.55c0,0-3.57,2.14-4.21,3.87,0,0-2.16-3.26-4.21-3.97,0,0,1.86-3.04,4.16-4.45ZM28.98,30.76c.55,1.64,1.86,2.93,1.86,2.93-1.27.02-3.27.92-3.27.92-1.98-.89-4.39-3.9-4.39-3.9,2.76-.84,5.8.06,5.8.06ZM22.43,28.47c-.75-2.24-.21-6.32-.21-6.32,2.47-.57,6.17.25,6.17.25-.6,1.72-.41,5.82-.41,5.82-2.21-.62-5.55.25-5.55.25ZM27.45,37.04c1.03.71,3.47.79,3.47.79-.59.57-1.89,2.88-1.89,2.88-2.66,1.03-5.66.14-5.66.14,1.01-2.59,4.08-3.81,4.08-3.81ZM34.5,27.56c-.43.53-.93,3.46-.93,3.46-1.2-1.12-2.76-1.96-2.76-1.96-.93-1.51-.16-5.71-.16-5.71,2.54,1.24,3.85,4.2,3.85,4.2ZM33.59,15.3c-1.86.97-4.06,4.85-4.06,4.85-.82-.63-6.27-.69-6.27-.69,1.52-1.86,2.96-7.3,2.96-7.3,1.75,1.83,7.37,3.14,7.37,3.14ZM15.36,33.37c-.17-2.86-3.31-7.51-3.31-7.51,2.08.56,7.58-2.65,7.58-2.65-.78,1.95.68,6.12.68,6.12-2.26.53-4.95,4.03-4.95,4.03ZM11.94,45.42c1.48-1.57,3.51-7.15,3.51-7.15,1.76,2.15,4.63,3.9,4.63,3.9-.88,3.59-.65,6.39-.65,6.39-4.19-2.62-7.49-3.15-7.49-3.15ZM20.92,40.01c-2.03-.91-4.43-4.21-4.43-4.21,1.28-2.68,4.74-4.28,4.74-4.28,1.09,2.34,3.65,4.08,3.65,4.08-1.66,1.06-3.96,4.4-3.96,4.4ZM22.38,43.21c1.38,1.02,5.71.23,5.71.23-.69,1.86.02,5.68.02,5.68-2.01.86-6.09.23-6.09.23-.93-1.71.36-6.14.36-6.14ZM26.3,59.33c.06-2.53-2.96-7.44-2.96-7.44,2,.63,6.3-.52,6.3-.52.13,1.02,3.92,4.94,3.92,4.94-2.39.23-7.27,3.03-7.27,3.03ZM35.92,55.19s-3.31-2.48-4.1-4.51c0,0,3.23-2.17,4.07-3.96,0,0,2.47,3.65,4.16,3.92,0,0-2.26,4.02-4.13,4.55ZM41.04,48.28s-2.73-1.52-3.86-4.14c0,0,.74-2.54.74-3.36,0,0,1.76,1.68,2.99,1.92,0,0,1.28,3.04.13,5.58ZM38.29,56.49s2.16-1.79,4.11-4.93c0,0,3.26.82,6.03.57,0,0-2.56,5.35-2.65,7.51,0,0-2.69-1.99-7.49-3.15ZM52,48.77s.62-4.37-.58-6.36c0,0,4-1.88,4.85-3.8,0,0,1.56,6.17,3.41,7.27,0,0-5.52,1.01-7.68,2.89Z"/>
  <circle class="cls-1" cx="36.01" cy="35.88" r="1.32"/>
</svg>