<?xml version="1.0" encoding="UTF-8"?>
<svg id="fill" xmlns="http://www.w3.org/2000/svg" viewBox="0 0 430.48 584.64">
  <defs>
    <style>
      .cls-1 {
        fill: #001739;
      }

      .cls-2 {
        fill: #f47734;
      }
    </style>
  </defs>
  <path class="cls-1" d="M61.01,167.21c.12-.12.25-.12.37,0,.12.13.12.25,0,.37-3.62,7-3.34,14.9.84,23.7,4.18,8.81,9.36,17.96,15.55,27.45,6.19,9.49,10.49,18.8,12.93,27.92,2.43,9.12.15,17.42-6.84,24.92l-24.92,25.11c5.62,5.25,9.86,9.74,12.74,13.49s3.06,6.93.56,9.55l-23.61,23.61c-.12.12-.25.19-.37.19-.12-.13-.18-.25-.18-.37.75-3.63-1.84-8.28-7.78-13.96-5.94-5.69-12.68-12.62-20.24-20.8-7.55-8.19-13.33-17.9-17.33-29.14-4-11.24-3.62-24.29,1.12-39.16,4.75-14.86,16.42-31.79,35.04-50.78l22.11-22.11ZM52.2,130.39c-1.87-3.31-4.37-6.47-7.49-9.46-3.12-3-5.5-5.25-7.12-6.75l-19.3,19.11c2.5,2.25,5.9,5.62,10.21,10.12,4.31,4.5,6.09,8.74,5.34,12.74,0,.12.06.25.18.37.12,0,.25-.06.37-.19l17.24-17.24c2.25-2.5,2.43-5.4.56-8.71ZM64.29,274.11c-1.19-7.55-4.09-15.33-8.71-23.33s-9.24-15.86-13.87-23.61c-4.62-7.74-7.43-15.05-8.43-21.92-6.75,14.74-9.21,27.7-7.4,38.88,1.81,11.18,5.87,20.93,12.18,29.23,6.31,8.31,12.77,15.58,19.4,21.83,5.75-6.5,8.02-13.52,6.84-21.08ZM84.24,130.39c-1.87-3.31-4.37-6.47-7.49-9.46-3.12-3-5.5-5.25-7.12-6.75l-19.3,19.11c2.5,2.25,5.9,5.62,10.21,10.12s6.09,8.74,5.34,12.74c0,.12.06.25.19.37.12,0,.24-.06.37-.19l17.24-17.24c2.25-2.5,2.43-5.4.56-8.71Z"/>
  <path class="cls-1" d="M116.96,254.34c-9.3-2.68-17.14-1.09-23.51,4.78l-22.11,22.11c-.12.13-.12.25,0,.37.13.13.25.13.37,0,6.87-3.75,14.93-3.78,24.17-.09,9.24,3.68,18.36,10.08,27.36,19.2,7.78-7.79,15.64-15.64,23.55-23.55-.58-1.87-20.58-20.15-29.83-22.82Z"/>
  <path class="cls-1" d="M242.51,254.34c-9.3-2.68-17.14-1.09-23.51,4.78l-14.11,14.11c-.21.72-.49,1.41-.84,2.09-.27.83-.64,1.62-1.08,2.35-.19.56-.42,1.11-.7,1.64-.03.11-.07.21-.11.31,5.72-1.58,12.15-.95,19.29,1.89,9.24,3.68,18.36,10.08,27.36,19.2,7.78-7.79,15.64-15.64,23.55-23.55-.58-1.87-20.58-20.15-29.83-22.82Z"/>
  <path class="cls-1" d="M324.64,158.47c.12-.12.25-.12.37,0,.12.13.12.25,0,.37-3.62,7-3.34,14.9.84,23.7,4.18,8.81,9.36,17.96,15.55,27.45,6.19,9.49,10.49,18.8,12.93,27.92,2.43,9.12.15,17.42-6.84,24.92l-24.92,25.11c5.62,5.25,9.86,9.74,12.74,13.49,2.87,3.75,3.06,6.93.56,9.55l-23.61,23.61c-.12.12-.25.19-.37.19-.12-.13-.18-.25-.18-.37.75-3.63-1.84-8.28-7.78-13.96-5.94-5.69-12.68-12.62-20.24-20.8-7.55-8.19-13.33-17.9-17.33-29.14-4-11.24-3.62-24.29,1.12-39.16,4.75-14.86,16.42-31.79,35.04-50.78l22.11-22.11ZM315.83,121.65c-1.87-3.31-4.37-6.47-7.49-9.46-3.12-3-5.5-5.25-7.12-6.75l-19.3,19.11c2.5,2.25,5.9,5.62,10.21,10.12,4.31,4.5,6.09,8.74,5.34,12.74,0,.12.06.25.18.37.12,0,.25-.06.37-.19l17.24-17.24c2.25-2.5,2.43-5.4.56-8.71ZM327.92,265.36c-1.19-7.55-4.09-15.33-8.71-23.33-4.62-7.99-9.24-15.86-13.87-23.61-4.62-7.74-7.43-15.05-8.43-21.92-6.75,14.74-9.21,27.7-7.4,38.88,1.81,11.18,5.87,20.93,12.18,29.23,6.31,8.31,12.77,15.58,19.4,21.83,5.75-6.5,8.02-13.52,6.84-21.08ZM347.88,121.65c-1.87-3.31-4.37-6.47-7.49-9.46s-5.5-5.25-7.12-6.75l-19.3,19.11c2.5,2.25,5.9,5.62,10.21,10.12,4.31,4.5,6.09,8.74,5.34,12.74,0,.12.06.25.19.37.12,0,.24-.06.37-.19l17.24-17.24c2.25-2.5,2.43-5.4.56-8.71Z"/>
  <path class="cls-1" d="M404.76,312.89c-3.12-3-5.56-5.25-7.3-6.75l-17.01,17.01c-.13-.26-.26-.53-.41-.8-1.87-3.31-4.37-6.47-7.49-9.46s-5.5-5.25-7.12-6.75l-19.3,19.3c2.5,2.12,5.9,5.44,10.21,9.93s6.09,8.74,5.34,12.74c0,.12.06.24.19.37h.37l17.24-17.43c.85-.95,1.41-1.96,1.67-3.02,2.09,1.93,4.53,4.37,7.33,7.33,4.25,4.5,6,8.74,5.25,12.74,0,.12.06.24.18.37h.37l17.43-17.43c2.12-2.5,2.27-5.41.46-8.71-1.81-3.31-4.28-6.47-7.4-9.46Z"/>
  <path class="cls-1" d="M430.43,234.01c-.62-10.12-4-19.46-10.12-28.02-6.12-8.55-11.62-16.42-16.49-23.61-4.87-7.18-5.87-13.77-2.99-19.77,0-.12-.06-.25-.19-.37s-.25-.12-.37,0l-22.29,22.29c-4.88,5.25-5.91,10.93-3.09,17.05,2.81,6.12,7.03,12.74,12.65,19.86,5.62,7.12,10.31,14.83,14.06,23.14,3.75,8.31,4.12,17.33,1.12,27.08-9.62-8.87-19.09-14.64-28.39-17.33-9.3-2.68-17.14-1.09-23.51,4.78l-22.11,22.11c-.12.13-.12.25,0,.37.13.13.25.13.37,0,6.87-3.75,14.93-3.78,24.17-.09,9.24,3.68,18.36,10.08,27.36,19.2,11.11-11.12,22.35-22.35,33.73-33.73,11.36-11.86,16.73-22.85,16.11-32.97"/>
  <path class="cls-2" d="M211.54,180.59l-35.21-25.8c-1.12-.82-1.45-2.35-.77-3.56l17.9-31.8s7.53-14.08,10.89-21.32c3.37-7.24,5.55-15.5,3.46-23.2-1.45-5.35-4.83-9.93-7.79-14.61-11.46-18.11-17.43-39.16-21.05-60.29-.3,14.01-3.18,27.7-6.8,41.13-2.09,7.75-4.46,15.43-7,23.05-2.15,6.47-4.43,12.9-6.81,19.28-1.48,3.96-2.99,7.91-4.57,11.83-1.06,2.64-2.2,5.18-3.46,7.76-.54,1.11-8.23,13.69-8.23,13.69,0,0-12.11,17.38-20.16,29.44-8.06,12.08-13.51,25.75-16.37,41.03-2.86,15.28.28,32,9.42,50.17,9.13,18.16,27.61,37.58,55.42,58.22l32.95,23.96c.19.13.35.1.48-.08.1-.15.11-.28.02-.39l-.26-.31c-5.94-8.23-7.14-18.38-3.57-30.45,3.59-12.19,8.4-25.02,14.43-38.49,6.03-13.48,9.68-26.33,10.96-38.57,1.28-12.23-3.35-22.45-13.87-30.68ZM180.28,218.92c-4.32,11.23-8.67,22.3-13.04,33.21-4.37,10.91-6.5,20.88-6.39,29.93-11.68-17.6-17.49-33.78-17.44-48.53.05-14.76,3.3-28.13,9.72-40.1,6.42-11.98,13.27-22.66,20.52-32.04,8.72,7.19,13.08,15.77,13.09,25.74,0,9.96-2.15,20.57-6.47,31.8Z"/>
  <path class="cls-2" d="M203.83,135.71s.01-.04.02-.06c2.65,2.57,5.79,5.75,9.42,9.54,5.61,5.86,7.94,11.39,6.96,16.6,0,.16.08.33.25.49.16,0,.32-.08.49-.25l22.46-22.46c2.93-3.26,3.17-7.04.73-11.35-2.44-4.31-5.7-8.42-9.77-12.33s-7.16-6.84-9.28-8.79l-22.24,22.01s0,0,0,0c-.9.83-1.6,1.83-2.35,2.79,2.15,2.53,3.25,3.8,5.6,5.98"/>
</svg>